# xmcd CD database file
#
# Track frame offsets:
#	150
#	15812
#	28405
#	42712
#	59260
#	71800
#	86512
#	102655
#	117792
#	133012
#	150975
#	173020
#
# Disc length: 2536 seconds
#
# Revision: 0
# Processed by: cddbd v1.5.2PL0 Copyright (c) Steve Scherf et al.
# Submitted via: CDex 1.70beta2
#
DISCID=9c09e60c
DTITLE=MY SHINING HOUR - 佐山雅弘
DYEAR=2009
DGENRE=Jazz
TTITLE0=All The Things You Are
TTITLE1=Girl Talk
TTITLE2=Let's Face The Music And Dance
TTITLE3=Hymn To Freedom
TTITLE4=Nardis
TTITLE5=My Shining Hour
TTITLE6=Early Autumn
TTITLE7=Autumn In New York
TTITLE8=In The Wee Small Hours Of The Morning
TTITLE9=Do You Know What It Means To Miss New Orleans
TTITLE10=Every Time We Say Goodbye
TTITLE11=I've Heard That Song Before
EXTD=YEAR: 2009
EXTT0=
EXTT1=
EXTT2=
EXTT3=
EXTT4=
EXTT5=
EXTT6=
EXTT7=
EXTT8=
EXTT9=
EXTT10=
EXTT11=
PLAYORDER=
